<svg viewBox="0 0 100 137" fill="none" xmlns="http://www.w3.org/2000/svg">
    <g clip-path="url(#clip0_2321_35541)">
        <path d="M99.4157 92.0509C99.2502 89.4063 98.7636 86.7809 98.423 84.1459C98.4035 84.1073 98.3841 84.0784 98.3743 84.0398C98.3743 84.0205 98.3841 84.0012 98.3938 83.9819C97.9169 81.3758 97.4692 78.7505 96.9437 76.1541C96.5349 74.1272 96.0288 72.1292 95.5617 70.112C95.5422 70.0541 95.5227 69.9961 95.5033 69.9382C95.4254 69.6004 95.3378 69.2723 95.26 68.9344C95.2405 68.8958 95.2113 68.8669 95.2016 68.8283C95.2016 68.809 95.2113 68.7897 95.221 68.7704C94.6955 66.5504 94.1797 64.3304 93.6541 62.1105C93.6347 62.0719 93.6152 62.0429 93.6055 62.0043C93.6055 61.985 93.6152 61.9657 93.6249 61.9464C93.1189 60.1898 92.749 58.3848 92.0872 56.6861C90.5884 52.9025 89.0507 49.1286 87.3184 45.4415C84.5738 39.6214 82.0629 33.7241 80.1748 27.5661C79.1724 24.2844 78.0532 21.0317 76.9826 17.7694C76.5349 18.0782 76.1067 18.4064 75.6395 18.6863C73.985 19.6708 71.6103 19.8445 70.2478 17.0551C69.3135 15.144 69.0799 11.7658 67.1335 10.6559C66.2089 10.125 64.4181 10.8972 63.221 11.0612C62.8123 12.0554 62.4133 13.0495 62.0434 13.9472C62.8901 14.8738 63.912 15.7714 64.6517 16.8717C66.0824 18.9855 66.6079 21.3213 65.4498 23.7246C65.1091 24.4292 64.4279 25.0373 63.7661 25.5102C62.3451 26.5237 60.8172 27.402 59.367 28.3865C57.6055 29.5737 56.5154 31.3304 55.5714 33.1546C54.5495 35.1043 53.4984 36.9864 51.659 38.328C50.5787 39.1099 49.44 38.9651 48.097 38.7527C47.9607 39.1967 46.8999 42.546 46.5495 43.4629C31.2892 83.0842 84.8755 120.592 94.4327 114.405C96.6712 113.005 97.44 110.689 98.1407 108.382C98.1602 108.324 98.1894 108.266 98.2089 108.218C98.4035 107.359 98.6079 106.5 98.8026 105.631C98.8123 105.573 98.822 105.515 98.8318 105.457C98.8512 105.39 98.8609 105.313 98.8804 105.245C98.8804 105.207 98.8609 105.168 98.8609 105.129C98.8609 105.11 98.8901 105.1 98.8999 105.081C99.0459 103.517 99.1918 101.954 99.3378 100.39C99.3573 100.245 99.3865 100.101 99.406 99.9655C99.4254 97.3209 99.5811 94.6762 99.4157 92.0412V92.0509Z"
              fill="#1C3A40"></path>
        <path d="M79.5036 111.741C79.5036 111.741 79.1921 111.557 78.9099 111.403C71.2992 107.156 64.4573 101.876 57.9756 96.1238C54.3357 92.9001 51.0559 89.3578 48.6617 85.0723C45.7517 79.8892 40.0096 64.8032 41.7712 52.5162C42.4427 47.835 43.3089 43.2407 44.905 38.7911C45.0705 38.3472 45.3138 37.8742 45.6349 37.2758C45.6544 37.2372 45.7323 37.1407 45.7615 37.1021C45.888 37.2275 45.9172 37.5074 46.0145 37.6522C46.5108 38.434 47.2018 38.8201 48.1556 39.0614C48.0194 39.5054 47.8053 40.2679 47.6301 40.7022C47.2602 41.6288 45.6641 47.4297 45.2164 49.389C44.4671 52.6224 44.4671 55.3732 44.9342 58.5777C45.3235 61.2416 46.9488 64.0021 49.2359 65.7298C49.1386 66.4923 48.9926 67.2838 48.9537 68.0752C48.8563 70.2855 49.2651 72.4186 50.0924 74.4552C50.9877 76.6655 52.1167 78.7117 54.3551 79.9182C54.6082 80.0533 54.8028 80.449 54.8807 80.7579C55.7177 84.3002 56.5352 87.8424 58.9877 90.7477C60.2529 92.2534 61.6349 93.5757 63.4452 94.4251C64.4476 94.898 65.45 95.1393 65.45 95.1393C68.1848 97.4462 71.6495 100.844 74.4622 103.054C87.9902 117.522 92.8856 114.839 94.4525 114.434C95.1435 116.219 95.9415 117.966 96.5157 119.781C97.5863 123.207 98.6763 126.634 99.5036 130.118C100.214 133.129 100.049 133.67 99.8442 134.77C99.6203 136.006 98.4622 136.498 97.3527 135.822C96.9537 135.581 96.5741 135.301 96.1848 135.041C96.1751 135.012 96.1654 134.983 96.1459 134.944V135.041C96.1459 135.156 96.4865 136.807 95.2895 136.981C93.4306 137.241 93.0899 135.716 92.6033 135.263C92.4963 136.006 91.9318 136.855 91.2408 136.874C89.1581 136.952 88.4671 134.558 88.3308 134.413C87.815 136.228 86.2189 135.726 85.5474 135.041C84.1167 133.593 83.3186 131.798 82.8807 129.838C82.6277 128.728 81.2748 122.86 79.523 111.741H79.5036Z"
              fill="#2B5B64"></path>
        <path d="M73.5084 9.73868C72.8758 8.28123 72.068 6.96857 71.0266 5.69451C64.3308 -2.50001 54.5108 -0.0291074 49.051 1.99781C48.9537 2.03641 48.8369 2.08467 48.7687 2.12328C48.8563 2.14258 48.9439 2.15224 49.0315 2.17154C50.0923 2.24876 51.0558 3.22361 51.3089 4.4108C51.4159 4.90305 51.6495 5.37599 51.8247 5.84894C53.0607 4.60384 54.6568 4.1695 56.3113 3.87029C56.5449 3.86064 56.7687 3.84133 57.0023 3.83168C57.1191 3.83168 57.2359 3.85098 57.3624 3.85098C57.4111 3.85098 57.4695 3.85098 57.5181 3.86063C60.3016 4.25637 62.3259 6.09989 62.9877 8.8314C63.0072 8.87 63.0364 8.89896 63.0461 8.93757C63.0461 8.95687 63.0364 8.97618 63.0266 8.99548C63.0656 9.69042 63.1045 10.3757 63.1434 11.0707C64.3405 10.9066 65.4305 11.2154 66.3551 11.7463C68.3113 12.8563 69.2456 15.1438 70.1799 17.0645C71.5327 19.8539 73.9172 19.6899 75.5717 18.6957C76.0388 18.4158 76.467 18.0876 76.9147 17.7788C75.776 15.0955 74.6665 12.393 73.5084 9.71938V9.73868Z"
              fill="#2B5B64"></path>
        <path d="M51.2114 11.1094C51.2114 11.1094 51.1822 11.0418 51.1725 11.0032C51.1725 10.9839 51.1822 10.9646 51.1919 10.955C51.1919 10.704 51.1919 10.4531 51.2017 10.1925C51.2211 10.1345 51.2406 10.0863 51.2601 10.0284C51.445 8.63849 51.6396 7.23895 51.8245 5.84907C51.6494 5.36647 51.4158 4.90318 51.3087 4.41093C51.0557 3.22373 50.0922 2.23923 49.0314 2.17167C48.9438 2.15237 48.8562 2.14271 48.7686 2.12341C48.5545 2.09445 27.9024 -1.24513 8.34035 16.6979C5.02162 19.7479 2.17004 23.0682 0.223567 27.122C-0.233854 28.0679 -0.0197426 29.0331 1.03135 28.898C2.28683 28.7339 3.13354 27.5467 4.18464 26.8711C4.2333 26.707 8.42795 25.1337 8.41821 25.2978C29.2844 18.0974 40.9632 21.3501 46.0241 25.124C46.7929 25.7032 47.7661 26.0024 48.788 25.7321C48.8367 25.7128 48.8854 25.6839 48.934 25.6646C50.7832 24.7187 51.3379 23.1261 50.5301 21.1185C50.1992 20.2884 49.8975 19.439 49.5861 18.5897V17.5762C49.6542 17.6052 49.7126 17.6245 49.7807 17.6534C50.3939 16.5821 51.0362 15.53 51.6007 14.4297C51.737 14.1594 51.6396 13.754 51.6007 13.4162C51.4936 12.6441 51.3574 11.8719 51.2211 11.0901L51.2114 11.1094Z"
              fill="#4694A3"></path>
        <path d="M91.8437 93.5757C91.795 94.483 91.9702 95.3903 91.4349 96.2493C91.0359 96.8767 90.6466 97.3979 89.8194 97.3882C89.6344 97.3882 89.469 97.4172 89.0505 97.1662C89.8485 100.284 90.8413 103.73 92.9921 106.374C93.2257 106.065 93.2938 105.728 93.6442 105.515C93.7999 105.428 93.9653 105.409 94.3157 105.515C95.0846 105.998 95.2597 107.031 95.0943 108.034C94.9483 108.932 94.5298 109.656 93.6734 109.897C92.4374 110.245 91.5322 109.492 90.8607 108.604C89.5079 106.818 88.5347 104.83 87.9994 102.649C87.8923 102.224 87.7853 101.596 87.6198 101.153C87.4252 101.239 86.0237 104.975 82.8802 101.191C81.2841 98.9132 80.0675 96.423 79.2792 93.7688C78.5298 91.2592 77.9459 88.6918 77.3327 86.1437C76.9337 84.7249 78.014 83.9431 78.5201 85.1206C78.8899 86.2016 79.2792 87.3695 79.6977 88.5181C80.233 89.9852 80.7001 91.4909 81.3814 92.9001C82.3254 94.8787 83.4349 96.7898 84.486 98.7106C84.6125 98.9422 84.8169 99.1352 85.1478 99.531C85.1478 99.531 85.5566 97.8419 85.7123 97.0987C86.1308 95.0139 85.177 93.1414 84.3984 91.2689C83.6101 89.3675 82.9775 87.3791 82.3546 85.4101C81.7999 83.6535 81.4203 82.669 80.9434 80.893C80.8364 80.4973 80.4179 79.1943 80.7099 78.6924C80.9142 78.3449 81.2354 78.036 81.7999 78.2484C82.2281 78.4318 82.6661 78.8661 82.8413 79.3005C83.4447 80.8351 83.8631 82.447 84.4958 83.972C85.6442 86.7421 86.8607 89.4833 88.1065 92.2051C88.34 92.7263 88.5444 93.7591 89.2549 93.7012C89.8972 93.6529 89.7804 92.7456 90.0043 92.3499C90.6271 92.7456 91.25 93.1414 91.8631 93.5371L91.8437 93.5757Z"
              fill="#2B5B64"></path>
        <path d="M72.3017 89.7634C72.107 88.7982 71.8442 87.8427 71.7275 86.8678C71.6496 86.2405 71.7469 85.5745 71.8637 84.9471C71.9026 84.7348 72.2335 84.4355 72.4282 84.4355C72.7104 84.4355 73.0608 84.6093 73.2652 84.8216C73.4988 85.0629 73.6545 85.4104 73.7518 85.7386C73.9951 86.6072 74.1508 87.5049 74.4233 88.3542C74.8029 89.5414 75.2311 90.7286 75.708 91.8869C76.3309 93.4215 77.4598 94.5605 78.764 95.5546C78.9683 95.709 79.2506 95.9503 79.4258 96.2496C79.7664 96.7901 79.3674 97.292 78.3941 97.0893C75.7567 96.597 74.4039 94.8211 73.343 92.7073C73.197 92.4177 72.9927 92.1571 72.8175 91.8869C72.8856 91.8 73.0316 91.6938 73.0121 91.6456C72.7883 91.0182 72.5352 90.4005 72.2919 89.7827L72.3017 89.7634Z"
              fill="#2B5B64"></path>
        <path d="M72.302 89.7633C72.5453 90.381 72.7983 90.9988 73.0222 91.6261C73.0417 91.6744 72.8957 91.7902 72.8275 91.8674C70.8519 92.0508 69.9857 90.632 69.1682 89.2711C67.7959 86.9932 67.2022 84.4644 66.8811 81.8583C66.8324 81.4337 66.6767 81.0186 66.5599 80.5939C66.3847 79.9859 66.6183 79.5226 67.1633 79.3102C67.6986 79.1075 68.0295 79.4261 68.1657 79.9473C68.4869 81.1152 68.7886 82.283 69.139 83.4509C69.8202 85.7384 70.375 88.0935 72.302 89.7633Z"
              fill="#4694A3"></path>
        <path d="M91.8442 93.5759C90.9099 93.5759 90.3941 93.3153 89.9854 92.3887C89.2165 90.661 88.8175 88.7982 88.3017 86.9836C88.2141 86.6748 88.3503 86.2115 88.5547 85.9315C88.9245 85.4007 89.4404 85.391 89.7421 86.0088C90.3065 87.167 90.6958 88.3638 91.1435 89.5607C91.4841 90.4776 91.7177 91.134 92.3795 91.356C93.1289 91.6069 93.9172 90.0143 94.3941 90.5355C95.1532 91.3849 93.888 93.3829 91.854 93.5856L91.8442 93.5759Z"
              fill="#4694A3"></path>
        <path d="M76.5642 76.897C76.2235 77.7753 75.1335 77.2445 74.3647 76.5302C73.0897 75.3527 72.7004 73.7505 72.3306 72.1675C72.0581 71.0383 71.9413 69.8704 71.7953 68.7121C71.7564 68.4129 71.7759 68.0365 71.9608 67.8338C72.5155 67.2354 73.1968 67.7952 73.4303 68.4998C73.917 70.0248 74.4036 71.5595 74.9681 73.0555C75.3574 74.0883 75.8732 75.0728 76.3111 76.0862C76.4279 76.3469 76.6712 76.6461 76.5739 76.8874L76.5642 76.897Z"
              fill="#2B5B64"></path>
        <path d="M78.638 65.0638C78.054 65.7587 77.2365 64.6681 77.0127 64.1276C76.565 63.0465 76.3411 62.3613 76.127 61.203C75.9908 60.4888 76.4968 59.3691 77.0516 59.3595C77.5966 59.3498 78.0443 59.9483 78.1319 60.7011C78.2779 61.9462 78.4433 62.1393 78.6088 63.3844C78.638 63.5967 78.7937 64.8997 78.6477 65.0735L78.638 65.0638Z"
              fill="#4694A3"></path>
        <path d="M61.4212 36.8221C59.8446 37.2854 59.0173 34.1968 59.757 32.9324C60.6621 31.3398 61.937 31.8803 62.0538 32.9613C62.2192 33.9169 62.1706 34.9207 62.083 35.9052C62.0538 36.2333 61.791 36.7159 61.4212 36.8318V36.8221Z"
              fill="#2B5B64"></path>
        <path d="M55.6104 61.9558C55.9315 62.0716 56.3987 62.863 56.6128 63.1912C57.0605 63.8958 57.2065 64.2722 57.586 65.0154C57.7807 65.4015 58.0337 65.9613 57.8877 66.2702C57.6347 66.801 57.0216 66.7238 56.496 66.5018C55.4547 66.0771 54.2868 64.2915 54.3452 63.2009C54.3841 62.5638 54.8318 61.6565 55.6006 61.9461L55.6104 61.9558Z"
              fill="#4694A3"></path>
        <path d="M64.4573 40.3259C62.7736 40.3645 62.3357 37.8647 63.3673 36.8126C63.9123 36.2528 64.5157 36.2432 65.0802 36.7644C66.034 37.6523 65.7907 40.297 64.4573 40.3259Z"
              fill="#2B5B64"></path>
        <path d="M51.4353 57.9696C53.1579 58.6453 53.7808 61.4733 52.8173 62.9211C52.3112 63.6836 51.4547 62.6508 51.2212 62.1393C50.7929 61.203 50.4718 60.1992 50.2576 59.1954C50.1214 58.5777 50.608 57.6511 51.4255 57.9696H51.4353Z"
              fill="#4694A3"></path>
        <path d="M65.9664 31.1275C66.1513 31.5908 66.0637 32.1795 65.9372 32.6718C65.8302 33.0772 65.762 33.7045 65.1976 33.7045C64.8083 33.7045 64.3314 33.7818 64.0589 32.9903C63.835 32.4015 63.7961 31.6776 63.9032 31.0406C64.0491 30.2298 65.5285 30.0078 65.9664 31.1178V31.1275Z"
              fill="#2B5B64"></path>
        <path d="M49.0708 17.3929C38.1998 14.5552 25.3141 14.0051 15.5623 20.0858C14.521 21.6301 17.7521 20.2595 18.336 20.0472C28.1463 16.3891 39.7278 17.3736 50.3166 19.2075C50.1317 18.8021 51.4066 18.1265 50.3555 17.8562C50.5988 17.9238 49.3141 17.4894 49.0708 17.3929Z"
              fill="#12272B"></path>
        <path d="M57.9273 10.0863C57.9273 10.0863 57.976 10.0476 58.0149 10.0669C57.9857 10.0669 57.9565 10.0766 57.9273 10.0863Z"
              fill="#4694A3"></path>
        <path d="M64.5936 16.8911C63.854 15.8004 62.8321 14.8931 61.9854 13.9665C66.3455 7.58658 58.3844 0.00978863 51.8345 5.85888C51.6496 7.24876 51.2214 10.1444 51.2116 10.2023C51.017 12.1616 51.4842 12.6635 51.5912 13.4357C51.8637 15.202 50.1022 16.0031 49.781 17.6729C49.7615 17.7791 49.6739 18.6381 49.7615 19.1303C49.927 20.028 50.1995 20.2886 50.5304 21.1283C51.9805 24.2459 48.8564 27.0932 46.0243 25.1242C46.5985 29.2263 46.4428 33.2319 45.6253 37.2664C47.2116 39.6697 49.1971 40.0944 51.5815 38.3377C55.1825 35.7993 55.6009 30.8478 59.2992 28.3962C64.1362 25.5778 68.4477 22.8174 64.5839 16.8911H64.5936Z"
              fill="#EEF5F6"></path>
        <path d="M57.3139 12.422C55.3188 12.4027 54.0438 11.0418 54.073 8.94733C54.0925 7.00728 55.3869 5.70427 57.2652 5.71392C59.3188 5.72357 60.7008 7.15206 60.6618 9.22724C60.6326 11.0901 59.2214 12.4413 57.3139 12.422ZM57.9368 10.0959C57.9368 10.0959 57.9952 10.0863 58.0244 10.0766C58.618 9.82566 59.0852 8.89907 58.9197 8.3103C58.7445 7.70222 58.1509 7.37406 57.5961 7.5671C57.0025 7.76979 56.3893 8.63847 56.5061 9.14037C56.6813 9.88357 57.2166 10.1345 57.9368 10.0959Z"
              fill="#12272B"></path>
        <path d="M12.4767 21.5238C11.9998 21.3018 11.3672 21.5914 10.9098 21.823C9.55696 22.5083 8.49614 23.3094 7.24066 24.1588C6.27716 24.8151 4.23336 26.7166 4.1847 26.871C4.97302 26.5428 8.19443 25.4136 8.41828 25.2977C8.94382 24.9792 11.3088 23.4639 12.2334 22.8847C12.7394 22.5662 13.1287 21.823 12.4767 21.5142V21.5238Z"
              fill="#12272B"></path>
    </g>
    <defs>
        <clipPath id="clip0_2321_35541">
            <rect width="100" height="137" fill="white"></rect>
        </clipPath>
    </defs>
</svg>
