<svg xmlns="http://www.w3.org/2000/svg" viewBox="0 0 22 24" fill="none">
    <path fill="currentColor"
          d="M5.75 1a.75.75 0 00-1.5 0h1.5zm12 0a.75.75 0 00-1.5 0h1.5zM4.25 23a.75.75 0 001.5 0h-1.5zm12 0a.75.75 0 001.5 0h-1.5zM14 4.75h6v-1.5h-6v1.5zm6.25.25v13h1.5V5h-1.5zM20 18.25h-6v1.5h6v-1.5zM13.75 18V5h-1.5v13h1.5zm.25.25a.25.25 0 01-.25-.25h-1.5c0 .966.784 1.75 1.75 1.75v-1.5zm6.25-.25a.25.25 0 01-.25.25v1.5A1.75 1.75 0 0021.75 18h-1.5zM20 4.75a.25.25 0 01.25.25h1.5A1.75 1.75 0 0020 3.25v1.5zm-6-1.5A1.75 1.75 0 0012.25 5h1.5a.25.25 0 01.25-.25v-1.5zM2 8.75h6v-1.5H2v1.5zM8.25 9v6h1.5V9h-1.5zM8 15.25H2v1.5h6v-1.5zM1.75 15V9H.25v6h1.5zm.25.25a.25.25 0 01-.25-.25H.25c0 .966.784 1.75 1.75 1.75v-1.5zM8.25 15a.25.25 0 01-.25.25v1.5A1.75 1.75 0 009.75 15h-1.5zM8 8.75a.25.25 0 01.25.25h1.5A1.75 1.75 0 008 7.25v1.5zm-6-1.5A1.75 1.75 0 00.25 9h1.5A.25.25 0 012 8.75v-1.5zM5.75 8V1h-1.5v7h1.5zm12-4V1h-1.5v3h1.5zM4.25 16v7h1.5v-7h-1.5zm12 3v4h1.5v-4h-1.5z"></path>
</svg>
